<?xml version="1.0" encoding="UTF-8"?>
<svg width="60px" height="60px" viewBox="0 0 60 60" version="1.1" xmlns="http://www.w3.org/2000/svg" xmlns:xlink="http://www.w3.org/1999/xlink">
    <g id="sift-demos" stroke="none" stroke-width="1" fill="none" fill-rule="evenodd">
        <g id="Group">
            <g id="Sift-Icon" transform="translate(0.000000, 34.285714)" fill="#2196F3" fill-rule="nonzero">
                <path d="M22.5,0 C24.2728795,0 25.7142857,1.44140625 25.7142857,3.21428571 L25.7142857,17.6785714 C25.7142857,19.4514509 24.2728795,20.8928571 22.5,20.8928571 L7.23214286,20.8928571 L0.959263412,25.59375 C0.848772341,25.6791295 0.723214286,25.7142857 0.602678571,25.7142857 C0.291294643,25.7142857 0,25.468192 0,25.1116071 L0,20.8928571 C0,19.9319196 0,18.8604911 0,17.6785714 L0,3.21428571 C0,1.44140625 1.44140625,0 3.21428571,0 L22.5,0 Z M7.82979321,11.3604503 C8.57305863,13.3241332 10.9083819,14.6650673 12.856983,14.6650673 C14.805584,14.6650673 17.1409073,13.3241332 17.8891949,11.3554281 L7.82979321,11.3604503 Z M7.63392857,8.63839286 C8.30189732,8.63839286 8.83928571,8.10100446 8.83928571,7.43303571 C8.83928571,6.76506696 8.30189732,6.22767857 7.63392857,6.22767857 C6.96595982,6.22767857 6.42857143,6.76506696 6.42857143,7.43303571 C6.42857143,8.10100446 6.96595982,8.63839286 7.63392857,8.63839286 Z M18.0803571,8.63839286 C18.7483259,8.63839286 19.2857143,8.10100446 19.2857143,7.43303571 C19.2857143,6.76506696 18.7483259,6.22767857 18.0803571,6.22767857 C17.4123884,6.22767857 16.875,6.76506696 16.875,7.43303571 C16.875,8.10100446 17.4123884,8.63839286 18.0803571,8.63839286 Z" id="Shape"></path>
            </g>
            <rect id="Rectangle" fill="#F2F2F2" x="34.2857143" y="34.2857143" width="25.7142857" height="8.57142857"></rect>
            <rect id="Rectangle" fill="#F2F2F2" x="34.2857143" y="51.4285714" width="25.7142857" height="8.57142857"></rect>
            <rect id="Rectangle" fill="#F2F2F2" x="0" y="0" width="60" height="8.57142857"></rect>
            <rect id="Rectangle" fill="#F2F2F2" x="0" y="17.1428571" width="60" height="8.57142857"></rect>
        </g>
    </g>
</svg>